<svg width="113" height="118" viewBox="0 0 113 118" fill="none" xmlns="http://www.w3.org/2000/svg">
<path d="M82.0139 30.1574H71.8261C69.6947 30.1574 67.8175 28.8357 67.1723 26.8434L64.024 17.3613C61.658 10.2162 51.3529 10.2162 48.9869 17.3613L45.8191 26.8434C45.1738 28.8357 43.2966 30.1574 41.1848 30.1574H30.9775C23.3123 30.1574 20.1445 39.7545 26.3236 44.1795L34.5755 50.0412C36.2962 51.2672 37.0197 53.4318 36.3549 55.4048L33.2067 64.9062C30.8406 72.0321 39.1707 77.9705 45.3694 73.5646L53.6212 67.6837C55.342 66.4769 57.6494 66.4769 59.3701 67.6837L67.622 73.5646C73.8207 77.9705 82.1507 72.0321 79.7847 64.9062L76.6365 55.4048C75.9912 53.4318 76.6951 51.2672 78.4159 50.0412L86.6678 44.1795C92.8664 39.7545 89.6791 30.1574 82.0139 30.1574ZM59.6243 52.225C56.3784 55.5198 51.0987 58.374 49.2802 56.8415C48.7327 56.3818 48.674 55.6539 48.6349 55.2516C48.4394 53.1253 50.3948 52.0717 53.2106 48.7003C53.3279 48.547 53.8559 48.2597 54.0123 47.7042C54.0123 47.7042 54.1296 47.2636 53.9536 46.8039C53.4452 45.4055 49.2606 46.1142 48.6545 44.5626C47.8136 42.4363 50.1992 40.0227 51.9396 38.2795C55.1856 34.9847 60.4652 32.1305 62.2837 33.6629C62.8312 34.1227 62.8899 34.8506 62.929 35.2529C63.105 37.1493 60.7976 38.1263 58.3533 41.8042C57.5712 42.9918 57.4734 43.3558 57.5907 43.7006C58.0796 45.2139 62.2446 44.1987 62.9094 45.9418C63.7307 48.0681 61.3451 50.4818 59.6243 52.225Z" fill="white"/>
<path d="M15.386 105.554C15.458 106.61 15.794 107.378 16.394 107.858C16.994 108.338 17.882 108.578 19.058 108.578C19.61 108.578 20.09 108.53 20.474 108.41C20.858 108.29 21.17 108.122 21.41 107.93C21.65 107.738 21.818 107.498 21.914 107.21C22.01 106.946 22.082 106.658 22.082 106.322C22.082 105.89 21.914 105.458 21.578 105.074C21.242 104.69 20.618 104.402 19.73 104.21L17.498 103.802C16.61 103.658 15.842 103.442 15.17 103.178C14.498 102.938 13.922 102.602 13.466 102.194C13.01 101.786 12.674 101.282 12.434 100.682C12.194 100.106 12.074 99.3864 12.074 98.5704C12.074 97.7544 12.218 97.0344 12.554 96.4104C12.89 95.7864 13.346 95.2824 13.922 94.8504C14.498 94.4424 15.218 94.1304 16.034 93.9144C16.85 93.6984 17.738 93.5784 18.722 93.5784C19.97 93.5784 21.002 93.7224 21.842 94.0104C22.658 94.2984 23.33 94.6824 23.858 95.1624C24.362 95.6424 24.746 96.1704 24.986 96.7944C25.226 97.4184 25.394 98.0664 25.49 98.7384L22.106 99.1704C21.914 98.2344 21.578 97.5624 21.074 97.1304C20.57 96.7224 19.802 96.5064 18.794 96.5064C18.17 96.5064 17.666 96.5784 17.282 96.6744C16.898 96.7704 16.586 96.9144 16.346 97.0824C16.106 97.2504 15.938 97.4424 15.842 97.6584C15.746 97.8984 15.698 98.1144 15.698 98.3544C15.698 99.0024 15.866 99.4824 16.226 99.7944C16.586 100.13 17.21 100.37 18.074 100.538L20.426 100.994C22.274 101.378 23.642 101.978 24.506 102.794C25.37 103.61 25.802 104.81 25.802 106.346C25.802 107.114 25.658 107.81 25.37 108.434C25.082 109.058 24.674 109.61 24.122 110.09C23.57 110.57 22.874 110.93 22.058 111.194C21.218 111.458 20.234 111.578 19.13 111.578C16.778 111.578 15.002 111.098 13.754 110.09C12.506 109.082 11.858 107.57 11.762 105.554H15.386Z" fill="white"/>
<path d="M27.6325 101.234H25.6645V98.6184H27.6325V95.2824H30.9925V98.6184H33.8725V101.234H30.9925V107.018C30.9925 107.69 31.1125 108.122 31.4005 108.362C31.6645 108.602 32.0245 108.698 32.4565 108.698C32.6725 108.698 32.8885 108.698 33.1285 108.674C33.3685 108.65 33.5845 108.602 33.8245 108.53L34.3045 111.002C33.8245 111.146 33.3685 111.266 32.9365 111.314C32.5045 111.362 32.0725 111.386 31.6885 111.386C30.2965 111.386 29.2885 111.074 28.6165 110.402C27.9445 109.754 27.6325 108.65 27.6325 107.09V101.234Z" fill="white"/>
<path d="M41.9583 109.562C41.4543 110.138 40.9023 110.594 40.2783 110.93C39.6543 111.29 38.8623 111.458 37.9023 111.458C37.3263 111.458 36.7983 111.386 36.2943 111.242C35.7903 111.098 35.3583 110.882 34.9743 110.57C34.5903 110.282 34.3023 109.898 34.0863 109.418C33.8463 108.938 33.7503 108.386 33.7503 107.714C33.7503 106.85 33.9423 106.154 34.3263 105.602C34.7103 105.074 35.2143 104.642 35.8383 104.33C36.4623 104.042 37.1583 103.826 37.9263 103.682C38.6943 103.562 39.4863 103.49 40.3023 103.442L41.9103 103.37V102.746C41.9103 101.978 41.6943 101.45 41.2623 101.162C40.8303 100.874 40.3503 100.73 39.7743 100.73C38.4303 100.73 37.6863 101.234 37.4943 102.242L34.4223 101.954C34.6383 100.658 35.2143 99.6984 36.1503 99.1224C37.0623 98.5464 38.3103 98.2344 39.8943 98.2344C40.8543 98.2344 41.6703 98.3544 42.3423 98.5944C43.0143 98.8344 43.5423 99.1464 43.9503 99.5784C44.3583 100.01 44.6463 100.538 44.8383 101.162C45.0303 101.786 45.1263 102.458 45.1263 103.226V111.146H41.9583V109.562ZM41.8863 105.554L40.3983 105.626C39.6783 105.674 39.1263 105.746 38.6943 105.842C38.2623 105.962 37.9263 106.106 37.6863 106.274C37.4463 106.442 37.3023 106.634 37.2303 106.85C37.1343 107.09 37.1103 107.33 37.1103 107.594C37.1103 108.026 37.2543 108.338 37.5423 108.578C37.8303 108.818 38.2143 108.938 38.7423 108.938C39.6063 108.938 40.3023 108.746 40.8543 108.338C41.1423 108.122 41.4063 107.834 41.5983 107.498C41.7903 107.162 41.8863 106.73 41.8863 106.202V105.554Z" fill="white"/>
<path d="M46.5314 98.6184H49.7954V100.37C50.2034 99.7224 50.7074 99.2424 51.3074 98.9064C51.8834 98.5704 52.5074 98.4024 53.1794 98.4024C53.4914 98.4024 53.7554 98.4264 53.9714 98.4504C54.1634 98.4744 54.3554 98.4984 54.5234 98.5224L54.1154 101.57C53.7314 101.474 53.2514 101.426 52.6994 101.426C52.3154 101.426 51.9794 101.474 51.6434 101.57C51.3074 101.666 50.9954 101.81 50.7314 102.05C50.4434 102.314 50.2274 102.602 50.0834 102.914C49.9394 103.25 49.8914 103.562 49.8914 103.898V111.146H46.5314V98.6184Z" fill="white"/>
<path d="M59.2904 94.0104H65.4104C66.7064 94.0104 67.7864 94.1784 68.6504 94.4664C69.5144 94.7544 70.1864 95.1624 70.6904 95.6424C71.1944 96.1224 71.5544 96.6984 71.7464 97.3464C71.9384 97.9944 72.0584 98.6664 72.0584 99.3624C72.0584 100.13 71.9384 100.85 71.7464 101.522C71.5544 102.218 71.1944 102.818 70.6904 103.346C70.1864 103.874 69.5144 104.282 68.6744 104.57C67.8344 104.882 66.7784 105.026 65.5064 105.026H62.8184V111.146H59.2904V94.0104ZM65.3864 102.05C66.0104 102.05 66.5144 102.002 66.9224 101.858C67.3304 101.738 67.6664 101.57 67.9064 101.33C68.1464 101.114 68.2904 100.85 68.3864 100.514C68.4824 100.178 68.5304 99.8184 68.5304 99.4344C68.5304 99.0504 68.4824 98.6904 68.3864 98.3784C68.2904 98.0904 68.1224 97.8264 67.8824 97.6104C67.6424 97.4184 67.3064 97.2504 66.8984 97.1304C66.4904 97.0344 65.9864 96.9624 65.3624 96.9624H62.8184V102.05H65.3864Z" fill="white"/>
<path d="M72.962 94.0104H76.322V111.146H72.962V94.0104Z" fill="white"/>
<path d="M85.313 109.562C84.809 110.138 84.257 110.594 83.633 110.93C83.009 111.29 82.217 111.458 81.257 111.458C80.681 111.458 80.153 111.386 79.649 111.242C79.145 111.098 78.713 110.882 78.329 110.57C77.945 110.282 77.657 109.898 77.441 109.418C77.201 108.938 77.105 108.386 77.105 107.714C77.105 106.85 77.297 106.154 77.681 105.602C78.065 105.074 78.569 104.642 79.193 104.33C79.817 104.042 80.513 103.826 81.281 103.682C82.049 103.562 82.841 103.49 83.657 103.442L85.265 103.37V102.746C85.265 101.978 85.049 101.45 84.617 101.162C84.185 100.874 83.705 100.73 83.129 100.73C81.785 100.73 81.041 101.234 80.849 102.242L77.777 101.954C77.993 100.658 78.569 99.6984 79.505 99.1224C80.417 98.5464 81.665 98.2344 83.249 98.2344C84.209 98.2344 85.025 98.3544 85.697 98.5944C86.369 98.8344 86.897 99.1464 87.305 99.5784C87.713 100.01 88.001 100.538 88.193 101.162C88.385 101.786 88.481 102.458 88.481 103.226V111.146H85.313V109.562ZM85.241 105.554L83.753 105.626C83.033 105.674 82.481 105.746 82.049 105.842C81.617 105.962 81.281 106.106 81.041 106.274C80.801 106.442 80.657 106.634 80.585 106.85C80.489 107.09 80.465 107.33 80.465 107.594C80.465 108.026 80.609 108.338 80.897 108.578C81.185 108.818 81.569 108.938 82.097 108.938C82.961 108.938 83.657 108.746 84.209 108.338C84.497 108.122 84.761 107.834 84.953 107.498C85.145 107.162 85.241 106.73 85.241 106.202V105.554Z" fill="white"/>
<path d="M89.8861 98.6184H93.1501V100.346C93.6301 99.6264 94.2301 99.0744 94.9021 98.7384C95.5741 98.4024 96.2941 98.2344 97.0381 98.2344C98.4541 98.2344 99.5101 98.6184 100.206 99.3624C100.878 100.106 101.238 101.282 101.238 102.866V111.146H97.8781V103.322C97.8781 102.458 97.7101 101.858 97.3741 101.522C97.0381 101.21 96.5821 101.042 96.0301 101.042C95.5981 101.042 95.2141 101.114 94.9021 101.234C94.5901 101.378 94.3021 101.546 94.0381 101.786C93.7981 102.026 93.6061 102.29 93.4621 102.602C93.3181 102.914 93.2461 103.25 93.2461 103.61V111.146H89.8861V98.6184Z" fill="white"/>
</svg>
