<svg width="131" height="37" viewBox="0 0 131 37" fill="none" xmlns="http://www.w3.org/2000/svg">
<path d="M30.7358 11.8264H25.9562C24.9563 11.8264 24.0756 11.1925 23.7729 10.2369L22.2959 5.68903C21.1859 2.26202 16.3512 2.26202 15.2412 5.68903L13.7551 10.2369C13.4523 11.1925 12.5716 11.8264 11.5809 11.8264H6.79213C3.196 11.8264 1.70984 16.4294 4.60876 18.5518L8.48011 21.3632C9.28741 21.9512 9.62684 22.9895 9.31493 23.9358L7.83795 28.4929C6.72792 31.9107 10.636 34.7589 13.5441 32.6457L17.4154 29.8251C18.2227 29.2463 19.3052 29.2463 20.1125 29.8251L23.9839 32.6457C26.892 34.7589 30.8 31.9107 29.69 28.4929L28.213 23.9358C27.9103 22.9895 28.2405 21.9512 29.0478 21.3632L32.9192 18.5518C35.8273 16.4294 34.3319 11.8264 30.7358 11.8264ZM20.2318 22.4106C18.7089 23.9909 16.232 25.3599 15.3788 24.6249C15.122 24.4044 15.0944 24.0552 15.0761 23.8623C14.9843 22.8425 15.9017 22.3371 17.2228 20.7201C17.2778 20.6466 17.5255 20.5088 17.5989 20.2423C17.5989 20.2423 17.6539 20.031 17.5714 19.8105C17.3328 19.1398 15.3697 19.4798 15.0853 18.7356C14.6908 17.7157 15.81 16.5581 16.6265 15.722C18.1493 14.1417 20.6262 12.7727 21.4794 13.5078C21.7363 13.7283 21.7638 14.0774 21.7821 14.2703C21.8647 15.1799 20.7822 15.6485 19.6355 17.4125C19.2685 17.9822 19.2227 18.1567 19.2777 18.3221C19.507 19.0479 21.4611 18.561 21.773 19.3971C22.1583 20.4169 21.0391 21.5746 20.2318 22.4106Z" fill="white"/>
<path d="M41.3101 21.3473C41.3851 22.4482 41.7354 23.2489 42.361 23.7494C42.9865 24.2498 43.9123 24.5 45.1383 24.5C45.7138 24.5 46.2142 24.45 46.6146 24.3248C47.0149 24.1997 47.3402 24.0246 47.5904 23.8244C47.8406 23.6242 48.0158 23.374 48.1159 23.0738C48.2159 22.7985 48.291 22.4983 48.291 22.148C48.291 21.6976 48.1159 21.2472 47.7656 20.8469C47.4153 20.4465 46.7647 20.1463 45.8389 19.9461L43.5119 19.5208C42.5862 19.3706 41.7855 19.1454 41.0849 18.8702C40.3843 18.62 39.7838 18.2697 39.3084 17.8443C38.833 17.419 38.4827 16.8935 38.2325 16.268C37.9822 15.6675 37.8571 14.9168 37.8571 14.0661C37.8571 13.2154 38.0073 12.4648 38.3576 11.8142C38.7079 11.1637 39.1833 10.6382 39.7838 10.1878C40.3843 9.76246 41.1349 9.43718 41.9856 9.21199C42.8364 8.9868 43.7622 8.86169 44.788 8.86169C46.0891 8.86169 47.1651 9.01182 48.0408 9.31208C48.8915 9.61233 49.5921 10.0127 50.1426 10.5131C50.668 11.0135 51.0684 11.564 51.3186 12.2145C51.5688 12.8651 51.7439 13.5407 51.844 14.2413L48.316 14.6917C48.1159 13.7158 47.7656 13.0152 47.2401 12.5648C46.7147 12.1395 45.914 11.9143 44.8631 11.9143C44.2125 11.9143 43.6871 11.9894 43.2868 12.0894C42.8864 12.1895 42.5611 12.3397 42.3109 12.5148C42.0607 12.6899 41.8856 12.8901 41.7855 13.1153C41.6854 13.3655 41.6354 13.5907 41.6354 13.8409C41.6354 14.5165 41.8105 15.0169 42.1858 15.3422C42.5611 15.6925 43.2117 15.9427 44.1125 16.1179L46.5645 16.5933C48.4912 16.9936 49.9174 17.6191 50.8182 18.4699C51.7189 19.3206 52.1693 20.5717 52.1693 22.173C52.1693 22.9737 52.0192 23.6993 51.7189 24.3499C51.4187 25.0004 50.9933 25.5759 50.4178 26.0763C49.8423 26.5768 49.1167 26.9521 48.266 27.2273C47.3902 27.5025 46.3644 27.6277 45.2134 27.6277C42.7613 27.6277 40.9097 27.1272 39.6086 26.0763C38.3075 25.0254 37.6319 23.4491 37.5319 21.3473H41.3101Z" fill="white"/>
<path d="M54.0778 16.8435H52.026V14.1162H54.0778V10.6382H57.5807V14.1162H60.5833V16.8435H57.5807V22.8736C57.5807 23.5742 57.7059 24.0246 58.0061 24.2748C58.2813 24.525 58.6567 24.6251 59.107 24.6251C59.3322 24.6251 59.5574 24.6251 59.8076 24.6001C60.0579 24.5751 60.283 24.525 60.5333 24.45L61.0337 27.0271C60.5333 27.1773 60.0579 27.3024 59.6075 27.3524C59.1571 27.4025 58.7067 27.4275 58.3064 27.4275C56.8551 27.4275 55.8042 27.1022 55.1036 26.4016C54.403 25.726 54.0778 24.5751 54.0778 22.9487V16.8435Z" fill="white"/>
<path d="M69.0131 25.5259C68.4877 26.1264 67.9122 26.6018 67.2616 26.9521C66.6111 27.3274 65.7854 27.5025 64.7845 27.5025C64.184 27.5025 63.6336 27.4275 63.1081 27.2774C62.5827 27.1272 62.1323 26.902 61.7319 26.5768C61.3316 26.2765 61.0313 25.8762 60.8061 25.3757C60.5559 24.8753 60.4558 24.2998 60.4558 23.5992C60.4558 22.6985 60.656 21.9728 61.0564 21.3974C61.4567 20.8469 61.9821 20.3965 62.6327 20.0712C63.2833 19.771 64.0089 19.5458 64.8096 19.3957C65.6102 19.2705 66.4359 19.1955 67.2867 19.1454L68.9631 19.0704V18.4198C68.9631 17.6191 68.7379 17.0687 68.2875 16.7684C67.8371 16.4682 67.3367 16.318 66.7362 16.318C65.335 16.318 64.5593 16.8435 64.3592 17.8944L61.1564 17.5941C61.3816 16.243 61.9821 15.2421 62.958 14.6416C63.9088 14.0411 65.2099 13.7158 66.8613 13.7158C67.8621 13.7158 68.7129 13.8409 69.4135 14.0911C70.1141 14.3414 70.6645 14.6666 71.0899 15.117C71.5153 15.5674 71.8155 16.1179 72.0157 16.7684C72.2158 17.419 72.3159 18.1196 72.3159 18.9202V27.1773H69.0131V25.5259ZM68.9381 21.3473L67.3867 21.4224C66.6361 21.4724 66.0606 21.5475 65.6102 21.6476C65.1598 21.7727 64.8096 21.9228 64.5593 22.098C64.3091 22.2731 64.159 22.4733 64.0839 22.6985C63.9838 22.9487 63.9588 23.1989 63.9588 23.4741C63.9588 23.9245 64.109 24.2498 64.4092 24.5C64.7095 24.7502 65.1098 24.8753 65.6603 24.8753C66.561 24.8753 67.2867 24.6751 67.8621 24.2498C68.1624 24.0246 68.4376 23.7243 68.6378 23.374C68.838 23.0237 68.9381 22.5734 68.9381 22.0229V21.3473Z" fill="white"/>
<path d="M73.7808 14.1162H77.1837V15.9427C77.6091 15.2671 78.1346 14.7667 78.7601 14.4164C79.3606 14.0661 80.0111 13.891 80.7117 13.891C81.037 13.891 81.3123 13.916 81.5374 13.941C81.7376 13.966 81.9378 13.9911 82.1129 14.0161L81.6876 17.1938C81.2872 17.0937 80.7868 17.0437 80.2113 17.0437C79.811 17.0437 79.4607 17.0937 79.1104 17.1938C78.7601 17.2939 78.4348 17.444 78.1596 17.6942C77.8593 17.9694 77.6341 18.2697 77.484 18.595C77.3339 18.9453 77.2838 19.2705 77.2838 19.6208V27.1773H73.7808V14.1162Z" fill="white"/>
<path d="M87.0828 9.31208H93.4632C94.8144 9.31208 95.9403 9.48723 96.8411 9.78748C97.7419 10.0877 98.4425 10.5131 98.9679 11.0135C99.4933 11.514 99.8687 12.1145 100.069 12.79C100.269 13.4656 100.394 14.1662 100.394 14.8918C100.394 15.6925 100.269 16.4431 100.069 17.1437C99.8687 17.8694 99.4933 18.4949 98.9679 19.0454C98.4425 19.5958 97.7419 20.0212 96.8661 20.3214C95.9904 20.6467 94.8894 20.7968 93.5633 20.7968H90.7609V27.1773H87.0828V9.31208ZM93.4382 17.6942C94.0887 17.6942 94.6142 17.6442 95.0396 17.494C95.4649 17.3689 95.8152 17.1938 96.0654 16.9436C96.3156 16.7184 96.4658 16.4431 96.5659 16.0928C96.6659 15.7425 96.716 15.3672 96.716 14.9669C96.716 14.5665 96.6659 14.1912 96.5659 13.866C96.4658 13.5657 96.2906 13.2905 96.0404 13.0653C95.7902 12.8651 95.4399 12.6899 95.0145 12.5648C94.5892 12.4648 94.0637 12.3897 93.4132 12.3897H90.7609V17.6942H93.4382Z" fill="white"/>
<path d="M101.336 9.31208H104.839V27.1773H101.336V9.31208Z" fill="white"/>
<path d="M114.213 25.5259C113.687 26.1264 113.112 26.6018 112.461 26.9521C111.811 27.3274 110.985 27.5025 109.984 27.5025C109.384 27.5025 108.833 27.4275 108.308 27.2774C107.782 27.1272 107.332 26.902 106.932 26.5768C106.531 26.2765 106.231 25.8762 106.006 25.3757C105.756 24.8753 105.655 24.2998 105.655 23.5992C105.655 22.6985 105.856 21.9728 106.256 21.3974C106.656 20.8469 107.182 20.3965 107.832 20.0712C108.483 19.771 109.208 19.5458 110.009 19.3957C110.81 19.2705 111.636 19.1955 112.486 19.1454L114.163 19.0704V18.4198C114.163 17.6191 113.937 17.0687 113.487 16.7684C113.037 16.4682 112.536 16.318 111.936 16.318C110.535 16.318 109.759 16.8435 109.559 17.8944L106.356 17.5941C106.581 16.243 107.182 15.2421 108.158 14.6416C109.108 14.0411 110.409 13.7158 112.061 13.7158C113.062 13.7158 113.912 13.8409 114.613 14.0911C115.314 14.3414 115.864 14.6666 116.289 15.117C116.715 15.5674 117.015 16.1179 117.215 16.7684C117.415 17.419 117.516 18.1196 117.516 18.9202V27.1773H114.213V25.5259ZM114.138 21.3473L112.586 21.4224C111.836 21.4724 111.26 21.5475 110.81 21.6476C110.359 21.7727 110.009 21.9228 109.759 22.098C109.509 22.2731 109.359 22.4733 109.284 22.6985C109.183 22.9487 109.158 23.1989 109.158 23.4741C109.158 23.9245 109.309 24.2498 109.609 24.5C109.909 24.7502 110.309 24.8753 110.86 24.8753C111.761 24.8753 112.486 24.6751 113.062 24.2498C113.362 24.0246 113.637 23.7243 113.837 23.374C114.038 23.0237 114.138 22.5734 114.138 22.0229V21.3473Z" fill="white"/>
<path d="M118.98 14.1162H122.383V15.9177C122.884 15.1671 123.509 14.5916 124.21 14.2413C124.91 13.891 125.661 13.7158 126.437 13.7158C127.913 13.7158 129.014 14.1162 129.74 14.8918C130.44 15.6675 130.815 16.8935 130.815 18.5449V27.1773H127.313V19.0203C127.313 18.1196 127.137 17.494 126.787 17.1437C126.437 16.8185 125.961 16.6433 125.386 16.6433C124.935 16.6433 124.535 16.7184 124.21 16.8435C123.885 16.9936 123.584 17.1688 123.309 17.419C123.059 17.6692 122.859 17.9444 122.709 18.2697C122.558 18.595 122.483 18.9453 122.483 19.3206V27.1773H118.98V14.1162Z" fill="white"/>
</svg>
